<svg id="Layer_1" xmlns="http://www.w3.org/2000/svg" viewBox="0 0 97 29" width="100%" height="100%" preserveAspectRatio="none"><defs><style> .cls-1 { fill: #f6f5fa; } .cls-2 { fill: #000764; } </style></defs><rect class="cls-1" x="1.38" y="2.2" width="92.95" height="24.28" rx="12.14" ry="12.14"/><g><path class="cls-2" d="M12,11.35h1.63v5.37h3.08v1.44h-4.71v-6.81Z"/><path class="cls-2" d="M18.5,11.35h4.98v1.34h-3.37v1.37h2.79v1.31h-2.79v1.43h3.53v1.34h-5.14v-6.81Z"/><path class="cls-2" d="M27.3,11.35h2.02l2.36,6.81h-1.75l-.42-1.34h-2.48l-.42,1.34h-1.64l2.33-6.81Zm1.84,4.17l-.88-2.74-.86,2.74h1.74Z"/><path class="cls-2" d="M33.33,11.35h3.62c.48,0,.89,.07,1.22,.22,.33,.15,.58,.36,.75,.63,.17,.27,.25,.59,.25,.96s-.08,.68-.25,.93c-.16,.25-.39,.45-.66,.59-.28,.14-.59,.23-.93,.27,.47,.03,.84,.19,1.09,.49,.25,.3,.42,.76,.5,1.36l.2,1.33h-1.69l-.11-1.29c-.02-.28-.07-.51-.16-.68s-.22-.3-.38-.38-.38-.12-.63-.12h-1.23v2.48h-1.59v-6.81Zm3.97,2.8c.19-.17,.29-.42,.29-.73,0-.25-.09-.45-.27-.61s-.43-.23-.75-.23h-1.65v1.83h1.47c.42,0,.72-.09,.91-.26Z"/><path class="cls-2" d="M41.17,11.35h2.23l2.32,4.83v-4.83h1.49v6.81h-2.01l-2.56-5.17v5.17h-1.48v-6.81Z"/><path class="cls-2" d="M52.43,11.35h2.56l1.65,5.35-.46-.02,1.74-5.33h2.47v6.81h-1.56v-6l.19,.18-2.04,5.82h-1.31l-2.06-6.17h.3s0,6.17,0,6.17h-1.47v-6.81Z"/><path class="cls-2" d="M63.86,17.87c-.48-.3-.85-.71-1.12-1.25-.26-.54-.4-1.16-.4-1.86s.13-1.34,.4-1.87c.26-.54,.64-.95,1.12-1.25,.48-.3,1.04-.44,1.67-.44s1.19,.15,1.67,.44,.85,.71,1.12,1.25c.26,.54,.4,1.16,.4,1.87s-.13,1.33-.4,1.86c-.26,.54-.64,.95-1.12,1.25s-1.04,.44-1.67,.44-1.19-.15-1.67-.44Zm2.46-1.16c.22-.16,.4-.41,.52-.74,.12-.33,.18-.73,.18-1.22s-.06-.89-.18-1.22c-.12-.33-.29-.58-.52-.75-.22-.16-.49-.25-.79-.25s-.57,.08-.79,.25c-.22,.17-.4,.41-.52,.75-.12,.33-.18,.74-.18,1.22s.06,.89,.18,1.22c.12,.33,.29,.58,.52,.74,.22,.16,.49,.25,.79,.25s.57-.08,.79-.25Z"/><path class="cls-2" d="M70.68,11.35h3.62c.48,0,.89,.07,1.22,.22,.33,.15,.58,.36,.75,.63,.17,.27,.25,.59,.25,.96s-.08,.68-.25,.93c-.16,.25-.39,.45-.66,.59-.28,.14-.59,.23-.93,.27,.47,.03,.84,.19,1.09,.49,.25,.3,.42,.76,.5,1.36l.2,1.33h-1.69l-.11-1.29c-.02-.28-.07-.51-.16-.68s-.22-.3-.38-.38-.38-.12-.63-.12h-1.23v2.48h-1.59v-6.81Zm3.97,2.8c.19-.17,.29-.42,.29-.73,0-.25-.09-.45-.27-.61s-.43-.23-.75-.23h-1.65v1.83h1.47c.42,0,.72-.09,.91-.26Z"/><path class="cls-2" d="M78.51,11.35h4.98v1.34h-3.37v1.37h2.79v1.31h-2.79v1.43h3.53v1.34h-5.14v-6.81Z"/></g></svg>