<svg id="Layer_1" xmlns="http://www.w3.org/2000/svg" viewBox="0 0 91 106" width="100%" height="100%" preserveAspectRatio="none"><defs><style> .cls-1 { fill: #f7f5f9; } .cls-2 { fill: #ff5d55; } </style></defs><path class="cls-1" d="M10.1,21.88V3.03c-3.09,.62-5.04,1.41-7.41,2.71L3.96,1.96H20.01l1.27,3.77c-2.37-1.3-4.32-2.09-7.41-2.71V21.88c0,1.54,.03,2.16,1.61,4.08h-6.99c1.58-1.92,1.61-2.54,1.61-4.08Z"/><path class="cls-1" d="M22.47,1.96L27.99,.49V10.78l1.13-.62c1.61-.82,3.36-1.82,5.11-1.82,2.33,0,3.6,1.75,3.6,3.87v9.77c0,1.61,.07,2.37,1.2,3.98h-5.97c1.13-1.61,1.13-2.37,1.13-3.98V12.9c0-1.89-.79-2.57-1.99-2.57-.79,0-1.78,.27-3.53,.96l-.69,.27v10.42c0,1.61,.03,2.37,1.17,3.98h-6c1.17-1.61,1.2-2.37,1.2-3.98V5.39c0-1.37-.31-1.85-1.89-3.43Z"/><path class="cls-1" d="M40.85,17.53c0-5.14,3.67-9.19,7.95-9.19,4.05,0,6.34,3.02,6.75,6.96-3.63,.34-7.27,.72-10.94,1.23v.07c0,4.56,2.23,7.37,6,7.37,1.99,0,3.63-.72,4.87-1.82v.82c-1.54,2.19-3.84,3.43-6.45,3.43-4.8,0-8.19-3.6-8.19-8.88Zm3.87-2.81h7.17c-.27-3.09-1.61-5.28-3.43-5.28s-3.36,1.82-3.74,5.28Z"/><path class="cls-1" d="M5.23,60.29v-15.84c0-1.58,0-2.19-1.54-4.08h6.1c6.45,0,9.22,2.81,9.22,6.03,0,4.25-4.7,6.86-9.63,6.99h-.38v6.89c0,1.58,.03,2.16,1.68,4.08H3.69c1.51-1.85,1.54-2.5,1.54-4.08Zm10.05-13.92c0-2.85-1.82-4.8-6.27-4.87v10.87c4.59-.45,6.27-2.85,6.27-6Z"/><path class="cls-1" d="M18.94,55.8c0-4.97,3.43-9.05,8.26-9.05s8.16,4.05,8.16,9.05-3.43,9.02-8.19,9.02-8.23-4.05-8.23-9.02Zm3.81-1.34c0,4.53,1.85,9.26,4.83,9.26,2.3,0,3.98-2.37,3.98-6.55,0-4.63-1.85-9.33-4.87-9.33-2.3,0-3.94,2.43-3.94,6.62Z"/><path class="cls-1" d="M49.29,47.2l5.14,12.48,1.51-5.11c.89-2.95,1.34-5.11,.58-7.37h3.57l-6.65,17.49h-.41l-4.94-11.49-4.87,11.49h-.38l-6.75-17.49h5.42c-.58,1.1-.65,2.23,.24,4.66l2.78,7.71,4.42-12.38h.34Z"/><path class="cls-1" d="M60.67,55.94c0-5.14,3.67-9.19,7.95-9.19,4.05,0,6.34,3.02,6.75,6.96-3.63,.34-7.27,.72-10.94,1.23v.07c0,4.56,2.23,7.37,6,7.37,1.99,0,3.63-.72,4.87-1.82v.82c-1.54,2.19-3.84,3.43-6.45,3.43-4.8,0-8.19-3.6-8.19-8.88Zm3.87-2.81h7.17c-.27-3.08-1.61-5.28-3.43-5.28s-3.36,1.82-3.74,5.28Z"/><path class="cls-1" d="M76.92,48.64l5.45-1.89v4.18l.82-1.23c1.2-1.75,1.99-2.57,3.98-3.12l.89,3.29-1.99,.17c-.93,.1-1.71,.21-2.5,.75l-1.2,.96v8.64c0,1.61,.14,2.3,1.34,3.98h-6.17c1.17-1.61,1.2-2.37,1.2-3.98v-8.81c0-.92-.24-1.23-1.82-2.95Z"/><path class="cls-1" d="M3.14,94.21c0-4.97,3.43-9.05,8.26-9.05s8.16,4.04,8.16,9.05-3.43,9.02-8.19,9.02-8.23-4.05-8.23-9.02Zm3.81-1.34c0,4.53,1.85,9.26,4.83,9.26,2.3,0,3.98-2.37,3.98-6.55,0-4.63-1.85-9.33-4.87-9.33-2.3,0-3.94,2.43-3.94,6.62Z"/><path class="cls-1" d="M26.66,86.77v12.03c0,1.61,.14,2.3,1.34,3.98h-6.14c1.17-1.61,1.17-2.37,1.17-3.98v-12.03h-2.47v-.07l2.47-1.82v-1.61c0-3.26,2.43-5.97,6.21-5.97,1.17,0,2.13,.14,2.88,.34l.38,3.12c-2.02-1.85-2.74-2.4-3.67-2.4-1.37,0-2.16,1.1-2.16,3.26v3.98h3.81l-.31,1.17h-3.5Z"/><path class="cls-2" d="M58.99,103.09h-.45l-6.03-16.77-6.31,16.77h-.45l-7.75-24.31h5.83c-.72,1.41-.75,2.78-.14,4.73l3.98,13,5.79-17.73h.38l6.24,18.07,2.71-9.88c.86-3.29,1.1-6.07,.41-8.19h4.05l-8.26,24.31Z"/><path class="cls-2" d="M66.29,94.35c0-5.14,3.67-9.19,7.95-9.19,4.05,0,6.34,3.02,6.75,6.96-3.63,.34-7.27,.72-10.94,1.23v.07c0,4.56,2.23,7.37,6,7.37,1.99,0,3.63-.72,4.87-1.82v.82c-1.54,2.19-3.84,3.43-6.45,3.43-4.8,0-8.19-3.6-8.19-8.88Zm3.87-2.81h7.17c-.27-3.09-1.61-5.28-3.43-5.28s-3.36,1.82-3.74,5.28Z"/></svg>