<svg id="Layer_1" xmlns="http://www.w3.org/2000/svg" viewBox="0 0 97 66" width="100%" height="100%" preserveAspectRatio="none"><defs><style> .cls-1 { fill: #f7f5f9; } </style></defs><path class="cls-1" d="M7.09,4.09c-.24-.52-.59-.98-1.05-1.51h2.71l5.02,12.92h-2.95c.22-.54,.18-1.46-.24-2.57l-1.38-3.53c-1.2,.18-2.4,.41-3.6,.65l-.41,1.16c-.9,2.57-.72,3.58-.5,4.28H2.36L7.09,4.09Zm1.9,4.8l-1.59-4.06-1.4,4.06h2.99Z"/><path class="cls-1" d="M14.32,7.02l2.94-1.02v1.31l.61-.33c.87-.44,1.81-.98,2.75-.98,1.26,0,1.94,.94,1.94,2.09v5.26c0,.87,.02,1.27,.65,2.14h-3.23c.63-.87,.63-1.27,.63-2.14v-4.89c0-1.02-.42-1.38-1.07-1.38-.42,0-.96,.15-1.9,.52l-.37,.15v5.61c0,.87,.02,1.27,.63,2.14h-3.23c.63-.87,.65-1.27,.65-2.14v-4.75c0-.5-.13-.66-.98-1.59Z"/><path class="cls-1" d="M27.9,19.01h-2.1l1.77-3.67-3.82-9.08h2.95c-.31,.57-.35,1.26,.17,2.51l1.72,4.36,1.37-3.71c.42-1.16,.54-2.07,.2-3.16h1.9l-4.02,9.23c-.57,1.27-.48,2.34-.13,3.53Z"/><path class="cls-1" d="M35.6,15.74c-.94,0-1.61-.67-1.61-1.79V6.88h-1.33v-.04l1.37-1V3.7h1.92v2.55h2.38l-.17,.63h-2.22v6.85c0,.7,.3,.94,.7,.94,.44,0,.94-.15,1.75-.57l-.04,.41c-1.11,.85-1.94,1.24-2.77,1.24Z"/><path class="cls-1" d="M39.01,2.57l2.97-.79V7.32l.61-.33c.87-.44,1.81-.98,2.75-.98,1.26,0,1.94,.94,1.94,2.09v5.26c0,.87,.04,1.27,.65,2.14h-3.21c.61-.87,.61-1.27,.61-2.14v-4.89c0-1.02-.42-1.38-1.07-1.38-.42,0-.96,.15-1.9,.52l-.37,.15v5.61c0,.87,.02,1.27,.63,2.14h-3.23c.63-.87,.65-1.27,.65-2.14V4.42c0-.74-.17-1-1.02-1.85Z"/><path class="cls-1" d="M48.87,7.02l2.94-1.02v7.35c0,.87,.02,1.27,.63,2.14h-3.23c.63-.87,.65-1.27,.65-2.14v-4.75c0-.5-.13-.66-.98-1.59Zm.79-3.77c0-.65,.54-1.18,1.2-1.18s1.2,.54,1.2,1.18-.54,1.2-1.2,1.2-1.2-.54-1.2-1.2Z"/><path class="cls-1" d="M53.44,7.02l2.94-1.02v1.31l.61-.33c.87-.44,1.81-.98,2.75-.98,1.26,0,1.94,.94,1.94,2.09v5.26c0,.87,.02,1.27,.65,2.14h-3.23c.63-.87,.63-1.27,.63-2.14v-4.89c0-1.02-.42-1.38-1.07-1.38-.42,0-.96,.15-1.9,.52l-.37,.15v5.61c0,.87,.02,1.27,.63,2.14h-3.23c.63-.87,.65-1.27,.65-2.14v-4.75c0-.5-.13-.66-.98-1.59Z"/><path class="cls-1" d="M65.2,13.39c0,.2,.11,.3,.44,.3h3.9c1.26,0,1.9,.67,1.9,1.55,0,1.86-3.32,3.99-5.87,3.99-1.31,0-2.2-.39-2.2-1.38,0-.55,.41-1.05,.9-1.59l.74-.85c-.83-.11-1.16-.55-1.16-1.02s.33-.9,.94-1.61l.78-.9c-1.22-.5-1.99-1.55-1.99-2.79,0-1.72,1.51-3.08,3.6-3.08,.98,0,1.85,.3,2.47,.79l2.27-.98-.2,1.35h-1.66c.48,.52,.76,1.2,.76,1.92,0,1.72-1.53,3.08-3.64,3.08-.42,0-.83-.06-1.2-.17l-.5,.81c-.18,.26-.26,.46-.28,.57Zm1.35,4.63c2.36,0,3.54-1,3.54-1.85,0-.46-.26-.76-.89-.76h-3.71l-.39,.61c-.2,.35-.41,.76-.41,1.05,0,.59,.35,.94,1.85,.94Zm.44-11.48c-.83,0-1.5,.7-1.5,2.16,0,1.66,.92,2.94,1.88,2.94,.83,0,1.51-.7,1.51-2.18,0-1.66-.85-2.92-1.9-2.92Z"/><path class="cls-1" d="M6.73,42.01h-2.1l1.77-3.67-3.82-9.08h2.95c-.31,.57-.35,1.26,.17,2.51l1.72,4.36,1.37-3.71c.42-1.16,.54-2.07,.2-3.16h1.9l-4.02,9.23c-.57,1.27-.48,2.34-.13,3.53Z"/><path class="cls-1" d="M11.18,33.88c0-2.68,1.85-4.87,4.45-4.87s4.39,2.18,4.39,4.87-1.85,4.86-4.41,4.86-4.43-2.18-4.43-4.86Zm2.05-.72c0,2.44,1,4.99,2.6,4.99,1.24,0,2.14-1.27,2.14-3.53,0-2.49-1-5.02-2.62-5.02-1.24,0-2.12,1.31-2.12,3.56Z"/><path class="cls-1" d="M21.81,36.67v-5.06c0-.5-.13-.66-.98-1.59l2.94-1.02v7.27c0,.98,.42,1.33,1.05,1.33,.41,0,.89-.11,1.7-.52l.46-.22v-5.37c0-.48-.13-.66-.85-1.5l2.83-1v7.35c0,.87,.02,1.27,.63,2.14h-2.6v-1.16l-.54,.35c-.92,.61-1.79,1.05-2.7,1.05-1.2,0-1.94-.94-1.94-2.07Z"/><path class="cls-1" d="M41.28,29.25l2.77,6.72,.81-2.75c.48-1.59,.72-2.75,.31-3.97h1.92l-3.58,9.42h-.22l-2.66-6.19-2.62,6.19h-.2l-3.64-9.42h2.92c-.31,.59-.35,1.2,.13,2.51l1.5,4.15,2.38-6.67h.18Z"/><path class="cls-1" d="M52.3,38.5v-1.13c-.52,.59-1.38,1.37-2.64,1.37-1.37,0-2.29-.92-2.29-2.23,0-1.57,1.13-2.18,3.12-3.34l1.81-1.05v-.83c0-1.31-.74-1.7-1.4-1.7-.79,0-1.59,.55-2.88,1.79l.28-1.9c.68-.22,1.72-.46,2.71-.46,2.1,0,3.25,.7,3.25,2.68v4.67c0,.87,.02,1.27,.65,2.14h-2.6Zm-1.7-.89c.78,0,1.37-.42,1.7-.74v-3.71l-1.26,.39c-1.37,.44-1.75,1.24-1.75,2.27,0,1.2,.59,1.79,1.31,1.79Z"/><path class="cls-1" d="M55.84,30.02l2.94-1.02v1.31l.61-.33c.87-.44,1.81-.98,2.75-.98,1.26,0,1.94,.94,1.94,2.09v5.26c0,.87,.02,1.27,.65,2.14h-3.23c.63-.87,.63-1.27,.63-2.14v-4.89c0-1.02-.42-1.38-1.07-1.38-.42,0-.96,.15-1.9,.52l-.37,.15v5.61c0,.87,.02,1.27,.63,2.14h-3.23c.63-.87,.65-1.27,.65-2.14v-4.75c0-.5-.13-.66-.98-1.59Z"/><path class="cls-1" d="M68.27,38.74c-.94,0-1.61-.67-1.61-1.79v-7.07h-1.33v-.04l1.37-1v-2.14h1.92v2.55h2.38l-.17,.63h-2.22v6.85c0,.7,.3,.94,.7,.94,.44,0,.94-.15,1.75-.57l-.04,.41c-1.11,.85-1.94,1.24-2.77,1.24Z"/><path class="cls-1" d="M5.11,61.74c-.94,0-1.61-.67-1.61-1.79v-7.07h-1.33v-.04l1.37-1v-2.14h1.92v2.55h2.38l-.17,.63h-2.22v6.85c0,.7,.3,.94,.7,.94,.44,0,.94-.15,1.75-.57l-.04,.41c-1.11,.85-1.94,1.24-2.77,1.24Z"/><path class="cls-1" d="M8.52,56.88c0-2.68,1.85-4.88,4.45-4.88s4.39,2.18,4.39,4.88-1.85,4.86-4.41,4.86-4.43-2.18-4.43-4.86Zm2.05-.72c0,2.44,1,4.99,2.6,4.99,1.24,0,2.14-1.27,2.14-3.53,0-2.49-1-5.02-2.62-5.02-1.24,0-2.12,1.31-2.12,3.56Z"/><path class="cls-1" d="M26.67,61.5v-1.13c-.52,.59-1.38,1.37-2.64,1.37-1.37,0-2.29-.92-2.29-2.23,0-1.57,1.13-2.18,3.12-3.34l1.81-1.05v-.83c0-1.31-.74-1.7-1.4-1.7-.79,0-1.59,.55-2.88,1.79l.28-1.9c.68-.22,1.72-.46,2.71-.46,2.1,0,3.25,.7,3.25,2.68v4.67c0,.87,.02,1.27,.65,2.14h-2.6Zm-1.7-.89c.78,0,1.37-.42,1.7-.74v-3.71l-1.26,.39c-1.37,.44-1.75,1.24-1.75,2.27,0,1.2,.59,1.79,1.31,1.79Z"/><path class="cls-1" d="M34.81,52.6c-1.44,0-2.53,1.38-2.53,3.82,0,2.58,1.24,4.01,3.1,4.01,.98,0,1.83-.39,2.44-.96v.44c-.79,1.16-2.01,1.83-3.3,1.83-2.57,0-4.27-2.01-4.27-4.84s1.94-4.89,4.84-4.89c.89,0,1.7,.17,2.25,.35l.18,1.98c-1.31-1.27-1.9-1.74-2.71-1.74Z"/><path class="cls-1" d="M38.33,48.57l2.97-.79v5.54l.61-.33c.87-.44,1.81-.98,2.75-.98,1.26,0,1.94,.94,1.94,2.09v5.26c0,.87,.04,1.27,.65,2.14h-3.21c.61-.87,.61-1.27,.61-2.14v-4.89c0-1.02-.42-1.38-1.07-1.38-.42,0-.96,.15-1.9,.52l-.37,.15v5.61c0,.87,.02,1.27,.63,2.14h-3.23c.63-.87,.65-1.27,.65-2.14v-8.94c0-.74-.17-1-1.02-1.85Z"/><path class="cls-1" d="M48.18,53.02l2.94-1.02v7.35c0,.87,.02,1.27,.63,2.14h-3.23c.63-.87,.65-1.27,.65-2.14v-4.75c0-.5-.13-.66-.98-1.59Zm.79-3.77c0-.65,.54-1.18,1.2-1.18s1.2,.54,1.2,1.18-.54,1.2-1.2,1.2-1.2-.54-1.2-1.2Z"/><path class="cls-1" d="M52.8,56.96c0-2.77,1.98-4.95,4.28-4.95,2.18,0,3.42,1.62,3.64,3.75-1.96,.18-3.91,.39-5.89,.67v.04c0,2.46,1.2,3.97,3.23,3.97,1.07,0,1.96-.39,2.62-.98v.44c-.83,1.18-2.07,1.85-3.47,1.85-2.58,0-4.41-1.94-4.41-4.78Zm2.09-1.51h3.86c-.15-1.66-.87-2.84-1.85-2.84s-1.81,.98-2.01,2.84Z"/><path class="cls-1" d="M65.37,61.67h-.22l-3.93-9.42h2.95c-.33,.57-.35,1.26,.15,2.51l1.72,4.38,1.37-3.73c.42-1.16,.55-2.07,.22-3.16h1.9l-4.15,9.42Z"/><path class="cls-1" d="M69.81,56.96c0-2.77,1.98-4.95,4.28-4.95,2.18,0,3.42,1.62,3.64,3.75-1.96,.18-3.91,.39-5.89,.67v.04c0,2.46,1.2,3.97,3.23,3.97,1.07,0,1.96-.39,2.62-.98v.44c-.83,1.18-2.07,1.85-3.47,1.85-2.58,0-4.41-1.94-4.41-4.78Zm2.09-1.51h3.86c-.15-1.66-.87-2.84-1.85-2.84s-1.81,.98-2.01,2.84Z"/><path class="cls-1" d="M79.28,59.58h1.96c-.11,1.46-.52,2.4-2.53,4.43h-.41c1.02-1.62,1.27-2.92,.98-4.43Z"/></svg>