<svg id="Layer_1" xmlns="http://www.w3.org/2000/svg" viewBox="0 0 97 66" width="100%" height="100%" preserveAspectRatio="none"><defs><style> .cls-1 { fill: #f7f5f9; } .cls-2 { fill: #ff5d55; } </style></defs><path class="cls-1" d="M5.11,15.74c-.94,0-1.61-.67-1.61-1.79V6.88h-1.33v-.04l1.37-1V3.7h1.92v2.55h2.38l-.17,.63h-2.22v6.85c0,.7,.3,.94,.7,.94,.44,0,.94-.15,1.75-.57l-.04,.41c-1.11,.85-1.94,1.24-2.77,1.24Z"/><path class="cls-1" d="M8.52,10.88c0-2.68,1.85-4.88,4.45-4.88s4.39,2.18,4.39,4.88-1.85,4.86-4.41,4.86-4.43-2.18-4.43-4.86Zm2.05-.72c0,2.44,1,4.99,2.6,4.99,1.24,0,2.14-1.27,2.14-3.53,0-2.49-1-5.02-2.62-5.02-1.24,0-2.12,1.31-2.12,3.56Z"/><path class="cls-1" d="M20.13,13.39c0,.2,.11,.29,.44,.29h3.9c1.26,0,1.9,.67,1.9,1.55,0,1.86-3.32,3.99-5.87,3.99-1.31,0-2.2-.39-2.2-1.38,0-.55,.41-1.05,.9-1.59l.74-.85c-.83-.11-1.16-.55-1.16-1.02s.33-.91,.94-1.61l.78-.9c-1.22-.5-1.99-1.55-1.99-2.79,0-1.72,1.51-3.08,3.6-3.08,.98,0,1.85,.3,2.47,.79l2.27-.98-.2,1.35h-1.66c.48,.52,.76,1.2,.76,1.92,0,1.72-1.53,3.08-3.64,3.08-.42,0-.83-.06-1.2-.17l-.5,.81c-.18,.26-.26,.46-.28,.57Zm1.35,4.63c2.36,0,3.54-1,3.54-1.85,0-.46-.26-.76-.89-.76h-3.71l-.39,.61c-.2,.35-.41,.76-.41,1.05,0,.59,.35,.94,1.85,.94Zm.44-11.48c-.83,0-1.5,.7-1.5,2.16,0,1.66,.92,2.94,1.88,2.94,.83,0,1.51-.7,1.51-2.18,0-1.66-.85-2.92-1.9-2.92Z"/><path class="cls-1" d="M27.29,10.96c0-2.77,1.98-4.95,4.28-4.95,2.18,0,3.42,1.62,3.64,3.75-1.96,.18-3.91,.39-5.89,.67v.04c0,2.46,1.2,3.97,3.23,3.97,1.07,0,1.96-.39,2.62-.98v.44c-.83,1.18-2.07,1.85-3.47,1.85-2.58,0-4.41-1.94-4.41-4.78Zm2.09-1.51h3.86c-.15-1.66-.87-2.84-1.85-2.84s-1.81,.98-2.01,2.84Z"/><path class="cls-1" d="M38.79,15.74c-.94,0-1.61-.67-1.61-1.79V6.88h-1.33v-.04l1.37-1V3.7h1.92v2.55h2.38l-.17,.63h-2.22v6.85c0,.7,.3,.94,.7,.94,.44,0,.94-.15,1.75-.57l-.04,.41c-1.11,.85-1.94,1.24-2.77,1.24Z"/><path class="cls-1" d="M42.2,2.58l2.97-.79V7.32l.61-.33c.87-.44,1.81-.98,2.75-.98,1.26,0,1.94,.94,1.94,2.09v5.26c0,.87,.04,1.27,.65,2.14h-3.21c.61-.87,.61-1.27,.61-2.14v-4.89c0-1.02-.42-1.38-1.07-1.38-.42,0-.96,.15-1.9,.52l-.37,.15v5.61c0,.87,.02,1.27,.63,2.14h-3.23c.63-.87,.65-1.27,.65-2.14V4.42c0-.74-.17-1-1.02-1.85Z"/><path class="cls-1" d="M52.1,10.96c0-2.77,1.98-4.95,4.28-4.95,2.18,0,3.42,1.62,3.64,3.75-1.96,.18-3.91,.39-5.89,.67v.04c0,2.46,1.2,3.97,3.23,3.97,1.07,0,1.96-.39,2.62-.98v.44c-.83,1.18-2.07,1.85-3.47,1.85-2.58,0-4.41-1.94-4.41-4.78Zm2.09-1.51h3.86c-.15-1.66-.87-2.84-1.85-2.84s-1.81,.98-2.01,2.84Z"/><path class="cls-1" d="M60.84,7.02l2.94-1.02v2.25l.44-.67c.65-.94,1.07-1.38,2.14-1.68l.48,1.77-1.07,.09c-.5,.06-.92,.11-1.35,.41l-.65,.52v4.65c0,.87,.07,1.24,.72,2.14h-3.32c.63-.87,.65-1.27,.65-2.14v-4.75c0-.5-.13-.66-.98-1.59Z"/><path class="cls-2" d="M78.16,6.25l2.77,6.72,.81-2.75c.48-1.59,.72-2.75,.31-3.97h1.92l-3.58,9.42h-.22l-2.66-6.18-2.62,6.18h-.2l-3.64-9.42h2.92c-.31,.59-.35,1.2,.13,2.51l1.5,4.15,2.38-6.67h.18Z"/><path class="cls-2" d="M84.28,10.96c0-2.77,1.98-4.95,4.28-4.95,2.18,0,3.42,1.62,3.64,3.75-1.96,.18-3.91,.39-5.89,.67v.04c0,2.46,1.2,3.97,3.23,3.97,1.07,0,1.96-.39,2.62-.98v.44c-.83,1.18-2.07,1.85-3.47,1.85-2.58,0-4.41-1.94-4.41-4.78Zm2.09-1.51h3.86c-.15-1.66-.87-2.84-1.85-2.84s-1.81,.98-2.01,2.84Z"/><path class="cls-1" d="M7.1,29.6c-1.44,0-2.53,1.38-2.53,3.82,0,2.58,1.24,4.01,3.1,4.01,.98,0,1.83-.39,2.44-.96v.44c-.79,1.16-2.01,1.83-3.3,1.83-2.57,0-4.27-2.01-4.27-4.84s1.94-4.89,4.84-4.89c.89,0,1.7,.17,2.25,.35l.18,1.98c-1.31-1.27-1.9-1.74-2.71-1.74Z"/><path class="cls-1" d="M16.07,38.5v-1.13c-.52,.59-1.38,1.37-2.64,1.37-1.37,0-2.29-.92-2.29-2.23,0-1.57,1.13-2.18,3.12-3.34l1.81-1.05v-.83c0-1.31-.74-1.7-1.4-1.7-.79,0-1.59,.55-2.88,1.79l.28-1.9c.68-.22,1.72-.46,2.71-.46,2.1,0,3.25,.7,3.25,2.68v4.67c0,.87,.02,1.27,.65,2.14h-2.6Zm-1.7-.89c.78,0,1.37-.42,1.7-.74v-3.71l-1.26,.39c-1.37,.44-1.75,1.24-1.75,2.27,0,1.2,.59,1.79,1.31,1.79Z"/><path class="cls-1" d="M19.61,30.02l2.94-1.02v1.31l.61-.33c.87-.44,1.81-.98,2.75-.98,1.26,0,1.94,.94,1.94,2.09v5.26c0,.87,.02,1.27,.65,2.14h-3.23c.63-.87,.63-1.27,.63-2.14v-4.89c0-1.02-.42-1.38-1.07-1.38-.42,0-.96,.15-1.9,.52l-.37,.15v5.61c0,.87,.02,1.27,.63,2.14h-3.23c.63-.87,.65-1.27,.65-2.14v-4.75c0-.5-.13-.66-.98-1.59Z"/><path class="cls-1" d="M37.96,38.5v-1.13c-.52,.59-1.38,1.37-2.64,1.37-1.37,0-2.29-.92-2.29-2.23,0-1.57,1.13-2.18,3.12-3.34l1.81-1.05v-.83c0-1.31-.74-1.7-1.4-1.7-.79,0-1.59,.55-2.88,1.79l.28-1.9c.68-.22,1.72-.46,2.71-.46,2.1,0,3.25,.7,3.25,2.68v4.67c0,.87,.02,1.27,.65,2.14h-2.6Zm-1.7-.89c.78,0,1.37-.42,1.7-.74v-3.71l-1.26,.39c-1.37,.44-1.75,1.24-1.75,2.27,0,1.2,.59,1.79,1.31,1.79Z"/><path class="cls-1" d="M46.1,29.6c-1.44,0-2.53,1.38-2.53,3.82,0,2.58,1.24,4.01,3.1,4.01,.98,0,1.83-.39,2.44-.96v.44c-.79,1.16-2.01,1.83-3.3,1.83-2.57,0-4.27-2.01-4.27-4.84s1.94-4.89,4.84-4.89c.89,0,1.7,.17,2.25,.35l.18,1.98c-1.31-1.27-1.9-1.74-2.71-1.74Z"/><path class="cls-1" d="M49.62,25.58l2.97-.79v5.54l.61-.33c.87-.44,1.81-.98,2.75-.98,1.26,0,1.94,.94,1.94,2.09v5.26c0,.87,.04,1.27,.65,2.14h-3.21c.61-.87,.61-1.27,.61-2.14v-4.89c0-1.02-.42-1.38-1.07-1.38-.42,0-.96,.15-1.9,.52l-.37,.15v5.61c0,.87,.02,1.27,.63,2.14h-3.23c.63-.87,.65-1.27,.65-2.14v-8.94c0-.74-.17-1-1.02-1.85Z"/><path class="cls-1" d="M59.48,30.02l2.94-1.02v7.35c0,.87,.02,1.27,.63,2.14h-3.23c.63-.87,.65-1.27,.65-2.14v-4.75c0-.5-.13-.66-.98-1.59Zm.79-3.77c0-.65,.54-1.18,1.2-1.18s1.2,.54,1.2,1.18-.54,1.2-1.2,1.2-1.2-.54-1.2-1.2Z"/><path class="cls-1" d="M64.09,33.96c0-2.77,1.98-4.95,4.28-4.95,2.18,0,3.42,1.62,3.64,3.75-1.96,.18-3.91,.39-5.89,.67v.04c0,2.46,1.2,3.97,3.23,3.97,1.07,0,1.96-.39,2.62-.98v.44c-.83,1.18-2.07,1.85-3.47,1.85-2.58,0-4.41-1.94-4.41-4.78Zm2.09-1.51h3.86c-.15-1.66-.87-2.84-1.85-2.84s-1.81,.98-2.01,2.84Z"/><path class="cls-1" d="M76.66,38.67h-.22l-3.93-9.42h2.95c-.33,.57-.35,1.26,.15,2.51l1.72,4.38,1.37-3.73c.42-1.16,.55-2.07,.22-3.16h1.9l-4.15,9.42Z"/><path class="cls-1" d="M81.11,33.96c0-2.77,1.98-4.95,4.28-4.95,2.18,0,3.42,1.62,3.64,3.75-1.96,.18-3.91,.39-5.89,.67v.04c0,2.46,1.2,3.97,3.23,3.97,1.07,0,1.96-.39,2.62-.98v.44c-.83,1.18-2.07,1.85-3.47,1.85-2.58,0-4.41-1.94-4.41-4.78Zm2.09-1.51h3.86c-.15-1.66-.87-2.84-1.85-2.84s-1.81,.98-2.01,2.84Z"/><path class="cls-1" d="M2.28,48.58l2.97-.79v5.71c1.13-1,1.98-1.48,2.97-1.48,1.81,0,3.36,1.59,3.36,4.41,0,3.34-2.25,5.32-4.69,5.32-.78,0-1.66-.26-2.47-.68l-1.13,.59v-11.23c0-.74-.17-1-1.02-1.85Zm2.97,5.37v6.28c.61,.76,1.26,.92,1.77,.92,1.5,0,2.53-1.26,2.53-4.3,0-2.4-.98-3.66-2.22-3.66-.85,0-1.38,.31-2.09,.76Z"/><path class="cls-1" d="M12.64,56.96c0-2.77,1.98-4.95,4.28-4.95,2.18,0,3.42,1.62,3.64,3.75-1.96,.18-3.91,.39-5.89,.67v.04c0,2.46,1.2,3.97,3.23,3.97,1.07,0,1.96-.39,2.62-.98v.44c-.83,1.18-2.07,1.85-3.47,1.85-2.58,0-4.41-1.94-4.41-4.78Zm2.09-1.51h3.86c-.15-1.66-.87-2.84-1.85-2.84s-1.81,.98-2.01,2.84Z"/><path class="cls-1" d="M24.14,61.74c-.94,0-1.61-.67-1.61-1.79v-7.07h-1.33v-.04l1.37-1v-2.14h1.92v2.55h2.38l-.17,.63h-2.22v6.85c0,.7,.3,.94,.7,.94,.44,0,.94-.15,1.75-.57l-.04,.41c-1.11,.85-1.94,1.24-2.77,1.24Z"/><path class="cls-1" d="M30.02,61.74c-.94,0-1.61-.67-1.61-1.79v-7.07h-1.33v-.04l1.37-1v-2.14h1.92v2.55h2.38l-.17,.63h-2.22v6.85c0,.7,.3,.94,.7,.94,.44,0,.94-.15,1.75-.57l-.04,.41c-1.11,.85-1.94,1.24-2.77,1.24Z"/><path class="cls-1" d="M33.44,56.96c0-2.77,1.98-4.95,4.28-4.95,2.18,0,3.42,1.62,3.64,3.75-1.96,.18-3.91,.39-5.89,.67v.04c0,2.46,1.2,3.97,3.23,3.97,1.07,0,1.96-.39,2.62-.98v.44c-.83,1.18-2.07,1.85-3.47,1.85-2.58,0-4.41-1.94-4.41-4.78Zm2.09-1.51h3.86c-.15-1.66-.87-2.84-1.85-2.84s-1.81,.98-2.01,2.84Z"/><path class="cls-1" d="M42.19,53.02l2.94-1.02v2.25l.44-.67c.65-.94,1.07-1.38,2.14-1.68l.48,1.77-1.07,.09c-.5,.06-.92,.11-1.35,.41l-.65,.52v4.65c0,.87,.07,1.24,.72,2.14h-3.32c.63-.87,.65-1.27,.65-2.14v-4.75c0-.5-.13-.66-.98-1.59Z"/><path class="cls-1" d="M47.65,60.58c0-.63,.52-1.16,1.16-1.16s1.18,.54,1.18,1.16-.52,1.16-1.18,1.16-1.16-.54-1.16-1.16Z"/></svg>