<svg id="Layer_1" xmlns="http://www.w3.org/2000/svg" xmlns:xlink="http://www.w3.org/1999/xlink" viewBox="0 0 127.06 41.4" width="100%" height="100%" preserveAspectRatio="none"><defs><style> .cls-1 { fill: url(#linear-gradient); } .cls-2 { fill: #fff; } .cls-3 { fill: url(#linear-gradient-8); } .cls-4 { fill: url(#linear-gradient-9); } .cls-5 { fill: url(#linear-gradient-3); } .cls-6 { fill: url(#linear-gradient-4); } .cls-7 { fill: url(#linear-gradient-2); } .cls-8 { fill: url(#linear-gradient-6); } .cls-9 { fill: url(#linear-gradient-7); } .cls-10 { fill: url(#linear-gradient-5); } .cls-11 { fill: url(#linear-gradient-10); } .cls-12 { fill: url(#linear-gradient-11); } </style><linearGradient id="linear-gradient" x1="8.87" y1="35.19" x2="8.87" y2="19.22" gradientUnits="userSpaceOnUse"><stop offset=".13" stop-color="#ec1c24"/><stop offset=".56" stop-color="#f15e58"/><stop offset=".64" stop-color="#f1655f"/><stop offset=".76" stop-color="#f37974"/><stop offset=".85" stop-color="#f58e8a"/></linearGradient><linearGradient id="linear-gradient-2" x1="8.74" y1="19.01" x2="9" y2="37.84" gradientUnits="userSpaceOnUse"><stop offset=".14" stop-color="#f58e8a"/><stop offset=".2" stop-color="#f48681"/><stop offset=".43" stop-color="#f26f6a"/><stop offset=".64" stop-color="#f1625c"/><stop offset=".82" stop-color="#f15e58"/></linearGradient><linearGradient id="linear-gradient-3" x1="8.54" y1="36.07" x2="13.41" y2="27.65" gradientUnits="userSpaceOnUse"><stop offset=".12" stop-color="#f15e58"/><stop offset=".68" stop-color="#f69f9b"/><stop offset="1" stop-color="#f9bfbc"/></linearGradient><linearGradient id="linear-gradient-4" x1="5.95" y1="16.92" x2="5.95" y2="9.02" gradientTransform="translate(2.15 -.79) rotate(9.22)" gradientUnits="userSpaceOnUse"><stop offset="0" stop-color="#ec1c24"/><stop offset=".06" stop-color="#ed282f"/><stop offset=".25" stop-color="#ef4d4f"/><stop offset=".44" stop-color="#f26969"/><stop offset=".63" stop-color="#f37d7b"/><stop offset=".81" stop-color="#f48986"/><stop offset="1" stop-color="#f58e8a"/></linearGradient><linearGradient id="linear-gradient-5" x1="16.79" y1="17.86" x2="26.49" y2="4.46" gradientUnits="userSpaceOnUse"><stop offset=".43" stop-color="#ee1d49"/><stop offset=".55" stop-color="#ef3e5d"/><stop offset=".71" stop-color="#f26776"/><stop offset=".83" stop-color="#f38186"/><stop offset=".91" stop-color="#f48b8c"/></linearGradient><linearGradient id="linear-gradient-6" x1="23.41" y1="5.15" x2="16.59" y2="16.97" gradientUnits="userSpaceOnUse"><stop offset=".18" stop-color="#ef4f50"/><stop offset=".25" stop-color="#f05e5f"/><stop offset=".4" stop-color="#f3817f"/><stop offset=".55" stop-color="#f69997"/><stop offset=".68" stop-color="#f7a8a6"/><stop offset=".79" stop-color="#f8aeab"/></linearGradient><linearGradient id="linear-gradient-7" x1="20.94" y1="10.03" x2="18.86" y2="24.81" gradientUnits="userSpaceOnUse"><stop offset="0" stop-color="#ec1c24"/><stop offset=".28" stop-color="#f15e58"/><stop offset=".67" stop-color="#f3746f"/><stop offset=".92" stop-color="#f47e79"/></linearGradient><linearGradient id="linear-gradient-8" x1="-8337.09" y1="-8022.06" x2="-8338.82" y2="-7989.02" gradientTransform="translate(8362.01 8028.52)" gradientUnits="userSpaceOnUse"><stop offset=".03" stop-color="#ef4f50"/><stop offset=".03" stop-color="#ef5152"/><stop offset=".09" stop-color="#f16766"/><stop offset=".16" stop-color="#f27876"/><stop offset=".24" stop-color="#f48581"/><stop offset=".35" stop-color="#f48c88"/><stop offset=".64" stop-color="#f58e8a"/><stop offset=".7" stop-color="#f37b7f"/><stop offset=".84" stop-color="#f04b64"/><stop offset=".95" stop-color="#ee1d49"/></linearGradient><linearGradient id="linear-gradient-9" x1="18.17" y1="30.12" x2="33.14" y2="30.12" gradientUnits="userSpaceOnUse"><stop offset=".21" stop-color="#ee1d49"/><stop offset=".36" stop-color="#dc2b5e"/><stop offset=".67" stop-color="#ae4f94"/><stop offset=".74" stop-color="#a458a2"/></linearGradient><linearGradient id="linear-gradient-10" x1="25.66" y1="23.83" x2="25.66" y2="39.6" gradientUnits="userSpaceOnUse"><stop offset=".45" stop-color="#7a459a"/><stop offset=".81" stop-color="#a458a2"/></linearGradient><linearGradient id="linear-gradient-11" x1="20.38" y1="27.63" x2="32.64" y2="20.56" gradientUnits="userSpaceOnUse"><stop offset=".1" stop-color="#f58e8a"/><stop offset=".52" stop-color="#f69996"/><stop offset=".63" stop-color="#f79e9b"/><stop offset=".71" stop-color="#f69a98"/><stop offset=".78" stop-color="#f5918f"/><stop offset=".83" stop-color="#f48180"/><stop offset=".89" stop-color="#f26a6b"/><stop offset=".94" stop-color="#f04c50"/><stop offset=".99" stop-color="#ed282f"/><stop offset="1" stop-color="#ec1c24"/></linearGradient></defs><path class="cls-2" d="M70.47,29.37h1.2v3.91c.36-.78,1-1.45,2.06-1.45,1.81,0,2.48,1.18,2.48,2.58v4.45h-1.2v-4.33c0-1.21-.52-1.69-1.45-1.69-1.01,0-1.9,.85-1.9,2.64v3.38h-1.2v-9.49Zm-1.57,8.51c-.53,0-.88-.33-.88-.94v-3.96h1.32v-.98h-1.32v-2.14l-1.17,.53v1.61h-1.02v.98h1.02v4.04c0,1.06,.6,1.85,1.93,1.85h.6v-.98h-.48Zm-4.03-8.51h-1.2v9.49h1.2v-9.49Zm-5.63,2.44c-1.79,0-2.63,1.25-2.78,2.25h1.2c.16-.74,.78-1.24,1.62-1.24,.98,0,1.53,.41,1.53,.98s-.29,.82-1.2,.98c-1.04,.19-3.48,.25-3.48,2.19,0,.98,.76,2.03,2.41,2.03,1.53,0,2.1-.89,2.26-1.42h.01v.27c0,.39,0,.66,.03,1h1.28c-.05-.33-.11-.88-.11-1.4v-2.95c0-1.06-.24-2.7-2.76-2.7Zm-.49,6.23c-.84,0-1.44-.41-1.44-1.06,0-.69,.6-.98,1.59-1.16,1.49-.27,1.78-.66,1.91-1.12v.96c.01,1.7-1.02,2.38-2.07,2.38Zm-6.78,.97c1.53,0,2.68-.74,3.07-2.21h-1.17c-.24,.85-1.01,1.21-1.93,1.21-1.22,0-2.1-.84-2.19-2.27h5.4v-.21c-.03-1.77-.78-3.71-3.2-3.71-1.94,0-3.35,1.49-3.35,3.56s1.34,3.63,3.38,3.63Zm-2.21-4.23c.16-1.18,.94-1.98,2.18-1.98s1.89,.78,1.99,1.98h-4.17Zm-3.79-5.42v4.2h-4.57v-4.2h-1.26v9.49h1.26v-4.23h4.57v4.23h1.26v-9.49h-1.26Zm72.79-10.24h1.67v1.18c.39-.8,1-1.37,2.06-1.37,1.78,0,2.47,1.17,2.47,2.86v4.2h-1.7v-3.79c0-1-.27-1.78-1.25-1.78-.92,0-1.54,.81-1.54,2.49v3.08h-1.71v-6.87Zm-3.39,6.87h1.71v-6.87h-1.71v6.87Zm.03-7.89h1.77v-1.59h-1.77v1.59Zm-4.51,.81c-1.81,0-2.75,1.18-2.95,2.31h1.61c.17-.64,.68-1.04,1.36-1.04,.78,0,1.26,.32,1.26,.86,0,.58-.43,.72-1.32,.85-.96,.15-3.22,.33-3.22,2.22,0,1.16,.9,2.06,2.41,2.06,1.3,0,1.87-.69,2.15-1.24h.01v.35c0,.23,.01,.48,.05,.7h1.71c-.09-.44-.13-1.14-.13-1.67v-2.49c0-1.69-.8-2.92-2.95-2.92Zm-.39,6.01c-.77,0-1.17-.39-1.17-.88,0-.52,.41-.8,1.33-.98,1.01-.2,1.37-.51,1.53-.84v.58c0,1.59-.81,2.11-1.69,2.11Zm-4.17-.25c-.73,0-.9-.45-.9-1.25v-2.99h1.38v-1.3h-1.38v-2.29l-1.66,.73v1.55h-1.1v1.3h1.1v3.23c0,1.38,.48,2.39,2.18,2.37h.82v-1.36h-.44Zm-10.71,1.33h1.71v-3.08c0-1.67,.62-2.49,1.54-2.49,.98,0,1.25,.78,1.25,1.78v3.79h1.7v-4.2c0-1.69-.69-2.86-2.47-2.86-1.06,0-1.67,.57-2.06,1.37v-1.18h-1.67v6.87Zm-7.81-2.67c0,1.69,.7,2.86,2.47,2.86,1.06,0,1.69-.57,2.06-1.37v1.18h1.67v-6.87h-1.71v3.08c0,1.67-.61,2.49-1.54,2.49s-1.25-.78-1.25-1.78v-3.79h-1.7v4.2Zm-8.32-.77c0,2.22,1.59,3.64,3.6,3.64s3.59-1.42,3.59-3.64-1.58-3.61-3.59-3.61-3.6,1.41-3.6,3.61Zm3.6,2.29c-1.17,0-1.93-1.04-1.93-2.29s.76-2.27,1.93-2.27,1.93,1.04,1.93,2.27-.76,2.29-1.93,2.29Zm-14.65,1.16h1.71v-3.08c0-1.34,.27-2.49,1.33-2.49,.94,0,1.12,.78,1.12,1.78v3.79h1.65v-3.28c0-1.44,.52-2.29,1.32-2.29,.85,0,1.12,.78,1.12,1.78v3.79h1.69v-4.2c0-1.69-.85-2.86-2.58-2.86-1,0-1.53,.47-1.91,1.29-.35-.89-.98-1.29-1.91-1.29-1,0-1.63,.66-1.85,1.32v-1.13h-1.67v6.87Zm-3.02-6.87h-1.67v6.87h1.71v-3.1c0-1.67,.61-2.01,1.22-2.15,.24-.09,.73-.09,.82-.09v-1.61c-.96,.01-1.7,.37-2.09,1.29v-1.21Zm-6.29,7.08c1.66,0,2.86-.86,3.27-2.23h-1.7c-.25,.6-.86,.85-1.58,.85-1,0-1.74-.69-1.87-1.79h5.26v-.33c-.01-2.03-1.06-3.77-3.36-3.77-2.05,0-3.54,1.52-3.54,3.61s1.45,3.67,3.52,3.67Zm-1.87-4.32c.16-1,.84-1.66,1.86-1.66,1.1,0,1.63,.77,1.74,1.66h-3.6Zm-2.87,2.78c-.73,0-.9-.45-.9-1.25v-2.99h1.38v-1.3h-1.38v-2.29l-1.66,.73v1.55h-1.1v1.3h1.1v3.23c0,1.38,.48,2.39,2.18,2.37h.82v-1.36h-.44Zm-10.71,1.33h1.71v-3.08c0-1.67,.62-2.49,1.54-2.49,.98,0,1.25,.78,1.25,1.78v3.79h1.7v-4.2c0-1.69-.69-2.86-2.47-2.86-1.06,0-1.67,.57-2.06,1.37v-1.18h-1.67v6.87Zm-1.77-9.49h-1.78v9.49h1.78v-9.49Z"/><g><g><path class="cls-1" d="M14.98,23.37l-5.84,8.79v-9.92c0-1.76-1.43-3.19-3.19-3.19s-3.19,1.43-3.19,3.19v11.46c0,3.26,2.64,5.9,5.9,5.9,2.08,0,3.92-1.08,4.97-2.71l1.35-2.03v-11.5Z"/><path class="cls-7" d="M14.98,23.37l-7.23,10.87c-.18,.26-.48,.43-.81,.43-.55,0-.99-.44-.99-.99v-14.63c-1.76,0-3.19,1.43-3.19,3.19v11.46c0,2.3,1.86,4.16,4.16,4.16,1.42,0,2.67-.71,3.42-1.79l4.63-6.97v-5.73Z"/><path class="cls-5" d="M14.98,23.37l-7.23,10.87c-.18,.26-.48,.43-.81,.43l-.02,3.2c1.42,0,2.67-.71,3.42-1.79l4.63-6.97v-5.73Z"/><circle class="cls-6" cx="5.95" cy="12.97" r="3.95" transform="translate(-2 1.12) rotate(-9.22)"/></g><g><path class="cls-10" d="M14.98,9.39c.13-4.1,3.49-7.39,7.62-7.39s7.62,3.41,7.62,7.62c0,1.67-.54,3.22-1.45,4.47l-3.36,5.05c-.44-.07-.9-.1-1.36-.1-5.02,0-9.08,4.07-9.08,9.08V9.39Zm8.87,.26c0-.69-.56-1.25-1.25-1.25s-1.25,.56-1.25,1.25v4.13s2.32-3.49,2.32-3.49c.11-.19,.18-.41,.18-.64Z"/><path class="cls-8" d="M21.4,19.45s-.03,0-.04,.01v-5.69s2.32-3.49,2.32-3.49c.11-.19,.18-.41,.18-.64,0-1.57-1.27-2.84-2.84-2.84s-2.84,1.27-2.84,2.84v11.58c-1.95,1.67-3.19,4.14-3.19,6.91V9.5c0-3.27,2.65-5.92,5.92-5.92s5.92,2.65,5.92,5.92c0,1.22-.37,2.34-.99,3.28l.02-.03-4.44,6.69Z"/><path class="cls-9" d="M21.36,19.46c-1.19,.37-2.27,.98-3.19,1.76V9.65c0-1.57,1.27-2.84,2.84-2.84s2.84,1.27,2.84,2.84c0-.69-.56-1.25-1.25-1.25s-1.25,.56-1.25,1.25v4.13s0,5.69,0,5.69Z"/></g><g><path class="cls-3" d="M20.9,6.81c-1.52,.06-2.73,1.31-2.73,2.84v11.58c1.59-1.36,3.65-2.17,5.9-2.17,5.02,0,9.08,4.07,9.08,9.08v8.29c0,1.76-1.43,3.19-3.19,3.19s-3.19-1.43-3.19-3.19v-8.29c0-1.49-1.21-2.7-2.7-2.7s-2.7,1.21-2.7,2.7v8.29c0,1.76-1.43,3.19-3.19,3.19s-3.19-1.43-3.19-3.19V9.5c0-3.27,2.65-5.92,5.92-5.92v3.22Z"/><path class="cls-4" d="M29.95,39.6v-11.47c0-2.37-1.92-4.3-4.3-4.3s-4.3,1.92-4.3,4.3v8.29c0,1.76-1.43,3.19-3.19,3.19v-11.47c0-4.13,3.35-7.49,7.49-7.49s7.49,3.35,7.49,7.49v8.29c0,1.76-1.43,3.19-3.19,3.19Z"/><path class="cls-11" d="M29.95,39.6v-11.47c0-2.37-1.92-4.3-4.3-4.3s-4.3,1.92-4.3,4.3c0-1.49,1.21-2.7,2.7-2.7s2.7,1.21,2.7,2.7v8.29c0,1.76,1.43,3.19,3.19,3.19Z"/><path class="cls-12" d="M33.14,28.13c0-4.13-3.35-7.49-7.49-7.49s-7.49,3.35-7.49,7.49v-6.91c1.58-1.36,3.64-2.17,5.89-2.17,5.02,0,9.08,4.07,9.08,9.08Z"/></g></g></svg>