<svg width="223" height="40" viewBox="0 0 223 40" fill="none" xmlns="http://www.w3.org/2000/svg">
<path d="M15 10C14.448 10 14 10.448 14 11V13C14 13.552 14.448 14 15 14H25C25.552 14 26 13.552 26 13V11C26 10.448 25.552 10 25 10H15ZM13 16C11.35 16 10 17.35 10 19V23C10 24.105 10.895 25 12 25H14V27C14 28.105 14.895 29 16 29H24C25.105 29 26 28.105 26 27V25H28C29.105 25 30 24.105 30 23V19C30 17.35 28.65 16 27 16H13ZM27 18C27.6 18 28 18.4 28 19C28 19.6 27.6 20 27 20C26.4 20 26 19.6 26 19C26 18.4 26.4 18 27 18ZM16.5 22H23.5C23.776 22 24 22.224 24 22.5V26.5C24 26.776 23.776 27 23.5 27H16.5C16.224 27 16 26.776 16 26.5V22.5C16 22.224 16.224 22 16.5 22Z" fill="#272343"/>
<path d="M41.134 25.5V15.896H45.922C47.966 15.896 48.974 17.086 48.974 18.892C48.974 20.726 47.84 21.944 45.866 21.944H42.702V25.5H41.134ZM42.702 20.6H45.796C46.776 20.6 47.392 19.956 47.392 18.906C47.392 17.856 46.846 17.24 45.796 17.24H42.702V20.6ZM50.2759 25.5V18.136H51.4799L51.6059 19.326H51.6899C51.9419 18.626 52.3899 17.968 53.3559 17.968C53.6359 17.968 53.9019 18.038 54.0279 18.08V19.452H53.5379C52.3199 19.452 51.7319 20.236 51.7319 21.552V25.5H50.2759ZM55.1157 16.862V15.378H56.5717V16.862H55.1157ZM55.1157 25.5V18.136H56.5717V25.5H55.1157ZM58.4517 25.5V18.136H59.6557L59.7817 19.186H59.8797C60.4257 18.388 61.2237 17.968 62.2877 17.968C63.6877 17.968 64.6537 18.626 64.6537 20.474V25.5H63.1977V20.698C63.1977 19.564 62.6097 19.242 61.7417 19.242C60.7337 19.242 59.9077 20.026 59.9077 21.188V25.5H58.4517ZM68.3111 25.668C67.0511 25.668 66.6731 24.842 66.6731 23.974V19.34H65.7491V18.136H66.7011L66.9671 16.078H68.1291V18.136H69.4591V19.34H68.1291V23.806C68.1291 24.24 68.2971 24.464 68.7311 24.464H69.4591V25.444C69.1791 25.57 68.6751 25.668 68.3111 25.668Z" fill="#2D334A"/>
<path d="M85.3846 8C83.3546 8 81.6923 9.66226 81.6923 11.6923V18.1538H78.9231C78.3678 18.1538 78 18.6154 78 19.0769V24.6154C78 25.0769 78.3678 25.5385 78.9231 25.5385H81.6923V28.3077C81.6923 30.3377 83.3546 32 85.3846 32H96.4615C98.4916 32 100.154 30.3377 100.154 28.3077V15.3846C100.154 14.3678 99.2416 13.4339 97.6731 11.8654C97.3954 11.6815 97.2007 11.4147 96.9231 11.2308C96.7392 10.9531 96.4724 10.7584 96.2885 10.4808C94.72 8.91226 93.7861 8 92.7692 8H85.3846ZM85.3846 9.84615H92.1346C92.78 10.03 92.7692 10.8666 92.7692 11.6058V14.375C92.7692 14.9303 93.137 15.2981 93.6923 15.2981H96.4615C97.3846 15.2981 98.3077 15.2981 98.3077 16.2212V28.2212C98.3077 29.238 97.4784 30.0673 96.4615 30.0673H85.3846C84.3678 30.0673 83.5385 29.238 83.5385 28.2212V25.5385H93.6923C94.2476 25.5385 94.6154 25.0769 94.6154 24.6154V19.0769C94.6154 18.6154 94.2476 18.1538 93.6923 18.1538H83.5385V11.6923C83.5385 10.6755 84.3678 9.84615 85.3846 9.84615ZM80.5962 19.0769C80.8486 19.0661 81.1262 19.0769 81.4038 19.0769C82.0493 19.0769 82.6226 19.2608 82.9904 19.5385C83.3582 19.8161 83.5385 20.2813 83.5385 20.8365C83.4447 21.3918 83.3582 21.8534 82.9904 22.2212C82.6226 22.5889 82.0493 22.7692 81.4038 22.7692H81.2308V24.5288C81.2308 24.6226 81.1514 24.7019 81.0577 24.7019H79.9327C79.9327 24.6082 79.8462 24.5288 79.8462 24.5288V19.3654C79.8462 19.2716 79.9327 19.2572 79.9327 19.1635C80.1166 19.1166 80.3438 19.0877 80.5962 19.0769ZM84.5481 19.0769H86.0192C86.9423 19.0769 87.6058 19.2572 88.0673 19.625C88.6226 20.0865 88.9038 20.8365 88.9038 21.7596C88.9038 22.9603 88.4351 23.613 88.0673 23.9808C87.6058 24.4423 86.7764 24.7019 85.7596 24.7019C85.2043 24.7019 84.732 24.7091 84.5481 24.6154C84.5481 24.6154 84.4615 24.5361 84.4615 24.4423V19.25C84.4615 19.1563 84.5481 19.1707 84.5481 19.0769ZM90.0865 19.0769H92.9423C93.0361 19.0769 93.1442 19.1563 93.1442 19.25V20.1731C93.1442 20.2668 93.0361 20.375 92.9423 20.375H91.2981V21.2981H92.8558C92.9495 21.2981 93.0577 21.3774 93.0577 21.4712V22.3942C93.0577 22.488 92.9495 22.5962 92.8558 22.5962H91.2981V24.5288C91.2981 24.6226 91.1899 24.7019 91.0962 24.7019H90.0865C89.9928 24.7019 89.9135 24.6226 89.9135 24.5288V19.25C89.9135 19.1563 89.9928 19.0769 90.0865 19.0769ZM81.1442 20.2885V21.5577H81.3173C81.7788 21.5577 82.0673 21.2981 82.0673 20.8365C82.1611 20.375 81.7716 20.2885 81.4038 20.2885H81.1442ZM85.7596 20.2885V23.5192H85.9327C86.3942 23.5192 86.7584 23.4219 86.9423 23.1442C87.22 22.8666 87.3173 22.4014 87.3173 21.8462C87.5012 20.8293 87.0577 20.2885 86.1346 20.2885H85.7596Z" fill="#272343"/>
<path d="M111.134 25.5V15.896H115.922C117.966 15.896 118.974 17.086 118.974 18.892C118.974 20.726 117.84 21.944 115.866 21.944H112.702V25.5H111.134ZM112.702 20.6H115.796C116.776 20.6 117.392 19.956 117.392 18.906C117.392 17.856 116.846 17.24 115.796 17.24H112.702V20.6ZM120.472 25.5V15.896H124.182C127.15 15.896 128.9 17.38 128.9 20.698C128.9 24.002 127.15 25.5 124.182 25.5H120.472ZM122.04 24.156H124.168C126.142 24.156 127.276 23.134 127.276 20.852V20.558C127.276 18.248 126.142 17.24 124.168 17.24H122.04V24.156ZM130.712 25.5V15.896H137.572V17.24H132.28V20.082H137.068V21.412H132.28V25.5H130.712Z" fill="#2D334A"/>
<path d="M151 12C149.976 12 149.14 12.7726 149.023 13.7656L159 20L168.977 13.7656C168.86 12.7726 168.024 12 167 12H151ZM149 15.752V26C149 27.105 149.895 28 151 28H167C168.105 28 169 27.105 169 26V15.752L159.529 21.6699C159.205 21.8719 158.795 21.8719 158.471 21.6699L149 15.752Z" fill="#272343"/>
<path d="M180.134 25.5V15.896H187.582V17.24H181.702V19.914H186.966V21.258H181.702V24.156H187.666V25.5H180.134ZM189.372 25.5V18.136H190.576L190.702 19.186H190.8C191.304 18.388 192.046 17.968 193.012 17.968C193.922 17.968 194.636 18.304 194.986 19.186H195.084C195.574 18.416 196.358 17.968 197.352 17.968C198.668 17.968 199.606 18.612 199.606 20.404V25.5H198.15V20.67C198.15 19.564 197.604 19.242 196.862 19.242C195.952 19.242 195.224 20.026 195.224 21.188V25.5H193.768V20.67C193.768 19.564 193.236 19.242 192.494 19.242C191.584 19.242 190.828 20.026 190.828 21.188V25.5H189.372ZM203.279 25.668C202.327 25.668 200.955 25.304 200.955 23.61C200.955 21.594 202.929 21.09 205.701 21.09V20.362C205.701 19.634 205.421 19.13 204.245 19.13C203.069 19.13 202.733 19.62 202.733 20.11V20.32H201.333C201.319 20.236 201.319 20.138 201.319 20.012C201.319 18.71 202.509 17.968 204.287 17.968C206.191 17.968 207.157 18.808 207.157 20.236V23.974C207.157 24.324 207.353 24.464 207.605 24.464H208.109V25.444C207.871 25.542 207.549 25.654 207.101 25.654C206.359 25.654 205.953 25.22 205.827 24.59H205.743C205.225 25.248 204.413 25.668 203.279 25.668ZM203.685 24.464C204.847 24.464 205.701 23.708 205.701 22.616V22.126C203.769 22.126 202.467 22.406 202.467 23.484C202.467 24.128 202.929 24.464 203.685 24.464ZM209.114 16.862V15.378H210.57V16.862H209.114ZM209.114 25.5V18.136H210.57V25.5H209.114ZM212.45 25.5V15.378H213.906V25.5H212.45Z" fill="#2D334A"/>
</svg>
